<?xml version="1.0" standalone="no"?>
<!DOCTYPE svg PUBLIC "-//W3C//DTD SVG 20010904//EN"
 "http://www.w3.org/TR/2001/REC-SVG-20010904/DTD/svg10.dtd">
<svg version="1.0" xmlns="http://www.w3.org/2000/svg"
 width="1024.000000pt" height="1024.000000pt" viewBox="0 0 1024.000000 1024.000000"
 preserveAspectRatio="xMidYMid meet">

<g transform="translate(0.000000,1024.000000) scale(0.100000,-0.100000)"
fill="#ffffff" stroke="none">
<path d="M3130 8070 c-314 -29 -556 -97 -825 -233 -426 -216 -717 -529 -820
-882 -105 -362 -8 -657 261 -791 48 -24 90 -37 130 -41 64 -5 114 8 114 31 0
7 -20 42 -44 77 -116 170 -149 280 -150 499 -1 139 2 165 27 255 33 120 126
312 199 410 83 113 242 263 356 339 175 116 401 197 634 226 148 19 441 8 543
-20 342 -93 590 -352 677 -707 24 -101 29 -302 9 -413 -50 -273 -192 -530
-420 -759 -135 -136 -340 -300 -472 -379 l-36 -22 33 127 c89 337 183 797 169
831 -18 45 -138 -163 -268 -464 -90 -208 -139 -304 -209 -406 -70 -103 -214
-250 -299 -307 -57 -38 -86 -51 -76 -33 3 4 42 162 87 352 44 190 95 399 111
465 82 323 218 907 260 1118 24 117 24 119 5 133 -28 20 -66 17 -139 -9 -129
-47 -215 -115 -261 -206 -14 -27 -39 -96 -56 -153 -28 -95 -322 -1289 -420
-1700 -31 -134 -45 -178 -58 -182 -165 -46 -510 -62 -715 -31 -237 35 -362 89
-542 234 -27 22 -51 38 -53 36 -9 -9 72 -107 137 -167 113 -104 266 -173 490
-221 95 -20 134 -22 379 -22 197 0 272 -3 272 -11 0 -7 -13 -70 -29 -140 -51
-224 -109 -534 -127 -674 -24 -196 -15 -490 20 -656 100 -471 358 -801 748
-959 365 -147 778 -152 1123 -15 236 94 395 199 575 379 163 164 246 278 344
473 l74 146 11 -96 c78 -645 497 -1120 1126 -1281 191 -48 469 -67 631 -41
448 71 850 326 1096 695 214 322 335 777 300 1133 -30 305 -110 541 -258 758
-35 53 -62 99 -59 104 8 13 132 84 250 143 349 174 771 264 1110 237 117 -9
200 -21 240 -36 18 -7 18 -5 -3 18 -60 66 -232 125 -429 148 -320 37 -797
-110 -1212 -373 l-54 -34 -77 62 c-193 156 -414 248 -805 335 -104 23 -217 52
-252 65 -239 86 -371 271 -390 546 -12 172 29 334 141 557 98 196 105 251 36
287 -28 14 -33 14 -63 0 -83 -39 -206 -207 -266 -364 -148 -383 -110 -823 86
-1020 31 -30 52 -56 47 -58 -34 -12 -224 -124 -292 -173 -46 -33 -86 -60 -90
-60 -13 1 -145 210 -188 298 -50 102 -104 255 -130 367 -26 109 -26 362 -1
490 54 265 158 470 335 657 208 218 435 318 692 305 313 -17 561 -167 675
-409 54 -114 69 -185 68 -328 -1 -254 -75 -446 -241 -622 -35 -37 -86 -84
-113 -105 -27 -20 -49 -41 -49 -45 0 -28 186 59 282 132 97 73 233 212 311
316 77 103 161 261 208 389 30 81 33 101 33 205 1 107 -1 119 -28 175 -98 202
-419 375 -769 414 -358 40 -759 -56 -1095 -261 -159 -97 -381 -293 -490 -433
-149 -191 -249 -393 -283 -573 -19 -100 -7 -298 25 -407 62 -211 203 -434 462
-731 35 -40 64 -76 64 -79 0 -2 -30 -38 -67 -77 -141 -154 -302 -397 -371
-561 l-29 -67 -11 148 c-38 493 -273 884 -637 1058 -184 88 -356 120 -600 111
-225 -9 -388 -38 -677 -122 -67 -19 -127 -35 -133 -35 -5 0 87 40 205 89 626
256 908 414 1147 644 283 271 412 569 401 927 -4 124 -7 144 -42 245 -41 123
-85 208 -157 306 -60 81 -175 192 -258 248 -152 103 -404 204 -591 236 -113
19 -397 27 -530 15z m3221 -2783 l114 -43 6 -510 c6 -511 10 -566 43 -594 44
-35 55 104 56 649 l0 433 37 -7 c72 -13 199 -58 277 -96 157 -79 283 -182 380
-314 l44 -60 -127 -130 c-70 -71 -160 -166 -200 -210 -83 -90 -82 -91 -122 14
-16 42 -21 77 -20 139 0 45 -1 82 -4 82 -3 0 -16 -22 -30 -50 -33 -66 -33
-135 1 -215 38 -91 44 -114 34 -140 -5 -13 -65 -97 -133 -187 -146 -192 -193
-263 -203 -300 -5 -23 -3 -28 14 -28 28 0 61 27 207 172 l131 129 22 -46 c12
-25 68 -116 123 -201 157 -241 195 -346 186 -502 -14 -243 -204 -376 -587
-413 -199 -19 -396 8 -522 72 -34 17 -88 57 -120 90 -100 99 -137 216 -117
371 24 195 98 342 299 598 103 131 131 186 138 267 4 54 1 70 -27 128 -35 76
-132 220 -298 443 l-114 153 56 63 c81 92 305 283 336 285 3 1 57 -18 120 -42z
m-2636 -51 c189 -41 316 -110 468 -255 190 -181 295 -382 354 -679 23 -118 23
-363 -1 -492 -69 -382 -200 -669 -400 -879 -227 -237 -508 -351 -831 -338
-426 17 -726 253 -858 673 -45 141 -60 253 -59 439 0 278 36 538 154 1133 l62
312 35 10 c20 5 117 22 216 39 156 25 231 35 440 55 84 8 352 -3 420 -18z
m2094 -651 c161 -180 255 -301 282 -360 35 -76 28 -96 -101 -299 -184 -290
-251 -529 -202 -723 25 -100 55 -152 124 -221 146 -146 434 -215 758 -183 206
20 350 75 454 175 198 191 175 511 -64 881 -99 152 -109 200 -62 300 16 33 57
97 92 143 72 96 276 312 295 312 6 0 18 -12 25 -27 133 -285 206 -689 181
-1001 -36 -444 -210 -802 -492 -1012 -275 -205 -570 -260 -869 -163 -176 57
-335 159 -469 298 -105 111 -183 224 -250 366 -187 395 -218 839 -85 1244 53
161 200 440 229 433 6 -2 76 -75 154 -163z"/>
<path d="M6350 3590 l0 -30 180 0 180 0 0 30 0 30 -180 0 -180 0 0 -30z"/>
<path d="M3330 4739 c0 -305 4 -477 10 -490 14 -25 36 -24 52 4 14 25 16 362
3 745 l-7 212 -29 0 -29 0 0 -471z"/>
<path d="M3683 4673 c-20 -8 -15 -31 15 -76 58 -85 64 -137 31 -298 -30 -144
-22 -174 83 -321 133 -188 173 -290 171 -443 -1 -156 -50 -248 -177 -333 -276
-185 -763 -167 -964 35 -83 83 -115 153 -120 268 -7 157 33 262 198 511 101
152 101 151 74 293 -24 128 -17 192 30 268 51 82 36 122 -27 73 -59 -47 -78
-189 -43 -330 31 -128 27 -145 -79 -315 -139 -222 -179 -334 -179 -495 -1
-125 16 -190 73 -277 132 -204 436 -302 726 -234 211 50 412 183 469 312 88
194 45 414 -145 740 -59 101 -64 136 -40 253 35 167 22 292 -35 350 -26 26
-37 29 -61 19z"/>
<path d="M3200 3815 l0 -35 175 0 175 0 0 35 0 35 -175 0 -175 0 0 -35z"/>
</g>
</svg>
